<?xml version="1.0" encoding="UTF-8"?>
<svg width="512" height="512" viewBox="0 0 500 500" xmlns="http://www.w3.org/2000/svg">
  <!-- Rounded rectangle background -->
  <rect x="0" y="0" width="500" height="500" rx="100" ry="100" fill="#FF3131"/>
  
  <!-- Original logo path (white) -->
  <path fill="#FFFFFF" d="
    M343.946533,72.828217 
    C347.053406,72.828217 349.669891,72.828217 352.658875,72.828217 
    C354.588501,109.066063 356.488831,144.753021 358.404785,180.734009 
    C350.299347,180.734009 342.695251,180.734009 335.039825,180.734009 
    C332.302795,172.440598 329.968811,163.955856 326.729858,155.831924 
    C318.625275,135.504440 306.781952,117.843399 286.327942,108.282150 
    C260.557831,96.235870 234.213089,94.629311 208.648865,108.896835 
    C175.120087,127.609413 181.938156,177.109283 208.792114,190.840805 
    C228.592896,200.965759 249.210403,208.723312 270.078308,216.011887 
    C290.033936,222.981827 309.850433,230.144821 328.254150,240.801147 
    C364.907654,262.024719 381.371216,296.868500 374.344391,338.612946 
    C367.869537,377.078217 344.455902,402.380737 309.731995,416.268738 
    C262.936829,434.984711 216.622009,432.355255 172.668182,405.983856 
    C168.832901,403.682800 165.202438,401.040314 160.965912,398.215790 
    C158.947250,404.342712 157.207703,410.195618 155.013657,415.872894 
    C154.475098,417.266479 152.491226,418.961761 151.105438,419.023285 
    C143.967041,419.340179 136.807037,419.170227 128.928909,419.170227 
    C127.792259,380.566559 126.661789,342.172791 125.509384,303.034058 
    C132.803772,303.034058 139.892258,302.841400 146.946304,303.247314 
    C147.972748,303.306396 149.224304,306.115967 149.713837,307.839600 
    C156.590424,332.052063 168.976425,353.018097 186.581863,370.948151 
    C202.074982,386.726898 220.306213,397.707733 242.475601,400.401367 
    C259.451813,402.464050 276.446167,401.505554 292.608917,394.950134 
    C312.191132,387.007904 321.544922,371.635468 322.935211,351.220856 
    C324.838379,323.275757 314.578064,305.294495 287.845917,293.518585 
    C267.981628,284.768036 247.124878,278.235199 226.599335,271.030304 
    C202.889740,262.707703 180.412094,252.477524 161.448059,235.321930 
    C125.321571,202.640472 126.636871,147.075989 153.129456,114.291557 
    C172.894073,89.832901 198.957047,77.430733 229.715622,74.231987 
    C257.862549,71.304848 285.196564,74.732025 311.318542,86.078636 
    C314.354492,87.397362 317.299530,88.925323 320.644775,90.527824 
    C322.519318,86.263405 324.584869,82.276169 326.028656,78.075256 
    C327.408722,74.059883 329.483093,72.113777 333.970825,72.744385 
    C337.075195,73.180611 340.290405,72.828217 343.946533,72.828217 
  z"/>
</svg>