<?xml version="1.0" encoding="UTF-8" standalone="yes"?>
<svg version="1.2" baseProfile="tiny-ps" width="100%" viewBox="0 0 288 288" xml:space="preserve" xmlns="http://www.w3.org/2000/svg">
  <title>bimi-svg-tiny-12-ps</title>
  <path fill="#FF3131" stroke="none" d="&#xA;M199.000000,289.000000 &#xA;&#x9;C132.695251,289.000000 66.890488,289.000000 1.042867,289.000000 &#xA;&#x9;C1.042867,193.070267 1.042867,97.140511 1.042867,1.105378 &#xA;&#x9;C96.887970,1.105378 192.776093,1.105378 288.832092,1.105378 &#xA;&#x9;C288.832092,96.999756 288.832092,192.999863 288.832092,289.000000 &#xA;&#x9;C259.140686,289.000000 229.320343,289.000000 199.000000,289.000000 &#xA;M186.280350,237.831070 &#xA;&#x9;C187.641983,236.894974 189.136002,236.103363 190.342484,234.997940 &#xA;&#x9;C195.723190,230.067886 201.594666,225.525635 206.231323,219.961975 &#xA;&#x9;C216.044388,208.187073 218.170120,193.907944 216.864059,179.186798 &#xA;&#x9;C215.672546,165.756851 209.802658,154.372070 199.148102,145.818344 &#xA;&#x9;C187.362961,136.356934 173.384521,131.275574 159.441772,126.049271 &#xA;&#x9;C146.958893,121.370201 134.479599,116.591011 122.353790,111.075417 &#xA;&#x9;C110.243164,105.566727 106.962410,94.677856 108.093460,82.453163 &#xA;&#x9;C109.063896,71.964439 115.616562,65.033150 125.162178,61.367161 &#xA;&#x9;C132.952820,58.375168 140.997162,57.761963 149.583008,58.714607 &#xA;&#x9;C165.232788,60.451035 176.607956,67.888977 183.939987,81.345528 &#xA;&#x9;C188.142731,89.058868 191.149261,97.423988 194.997589,106.186104 &#xA;&#x9;C198.303513,105.800568 202.480804,105.313408 207.318802,104.749207 &#xA;&#x9;C206.178894,83.839851 205.053955,63.205311 203.915833,42.328823 &#xA;&#x9;C198.982391,42.328823 194.087463,41.071537 190.561386,42.728027 &#xA;&#x9;C187.758102,44.044960 186.628265,48.924042 184.700745,52.318020 &#xA;&#x9;C164.293396,42.192242 143.138535,40.245132 121.563644,45.308907 &#xA;&#x9;C101.094833,50.113068 86.729256,62.600746 79.934700,82.799835 &#xA;&#x9;C74.003174,100.433266 76.948502,117.014091 88.479721,131.431931 &#xA;&#x9;C99.381096,145.062256 115.013535,151.804047 131.070496,157.117020 &#xA;&#x9;C145.482666,161.885773 160.195770,165.602951 173.068008,174.250443 &#xA;&#x9;C181.484680,179.904694 186.821152,186.804474 186.065491,197.415649 &#xA;&#x9;C185.912796,199.559753 186.315689,201.742310 186.177628,203.888809 &#xA;&#x9;C185.669144,211.794250 183.399979,219.365265 176.610687,223.772751 &#xA;&#x9;C160.123474,234.475937 142.369904,235.130508 124.959236,226.653442 &#xA;&#x9;C104.873474,216.873886 93.771149,199.342041 86.917519,178.699951 &#xA;&#x9;C86.455040,177.307022 84.986961,175.392914 83.804520,175.252304 &#xA;&#x9;C80.057068,174.806732 76.223228,175.087616 72.085449,175.087616 &#xA;&#x9;C72.430527,178.270706 72.900177,180.967239 72.987411,183.676086 &#xA;&#x9;C73.507835,199.837204 73.808418,216.006348 74.445656,232.162445 &#xA;&#x9;C74.910919,243.958344 75.106377,244.054733 86.524254,242.375885 &#xA;&#x9;C87.999084,242.159027 89.666336,240.455475 90.453865,239.009903 &#xA;&#x9;C91.657257,236.800934 92.171898,234.216766 93.062553,231.540634 &#xA;&#x9;C94.262115,232.111206 94.835991,232.389297 95.414085,232.658340 &#xA;&#x9;C103.995903,236.652573 112.268120,241.665588 121.235474,244.392471 &#xA;&#x9;C133.721146,248.189255 146.651581,248.901138 159.847549,246.568848 &#xA;&#x9;C168.979156,244.954926 177.379776,242.015823 186.280350,237.831070 &#xA;z"/>
  <path fill="#FFFBFB" stroke="none" d="&#xA;M185.915161,237.895981 &#xA;&#x9;C177.379776,242.015823 168.979156,244.954926 159.847549,246.568848 &#xA;&#x9;C146.651581,248.901138 133.721146,248.189255 121.235474,244.392471 &#xA;&#x9;C112.268120,241.665588 103.995903,236.652573 95.414085,232.658340 &#xA;&#x9;C94.835991,232.389297 94.262115,232.111206 93.062553,231.540634 &#xA;&#x9;C92.171898,234.216766 91.657257,236.800934 90.453865,239.009903 &#xA;&#x9;C89.666336,240.455475 87.999084,242.159027 86.524254,242.375885 &#xA;&#x9;C75.106377,244.054733 74.910919,243.958344 74.445656,232.162445 &#xA;&#x9;C73.808418,216.006348 73.507835,199.837204 72.987411,183.676086 &#xA;&#x9;C72.900177,180.967239 72.430527,178.270706 72.085449,175.087616 &#xA;&#x9;C76.223228,175.087616 80.057068,174.806732 83.804520,175.252304 &#xA;&#x9;C84.986961,175.392914 86.455040,177.307022 86.917519,178.699951 &#xA;&#x9;C93.771149,199.342041 104.873474,216.873886 124.959236,226.653442 &#xA;&#x9;C142.369904,235.130508 160.123474,234.475937 176.610687,223.772751 &#xA;&#x9;C183.399979,219.365265 185.669144,211.794250 186.177628,203.888809 &#xA;&#x9;C186.315689,201.742310 185.912796,199.559753 186.065491,197.415649 &#xA;&#x9;C186.821152,186.804474 181.484680,179.904694 173.068008,174.250443 &#xA;&#x9;C160.195770,165.602951 145.482666,161.885773 131.070496,157.117020 &#xA;&#x9;C115.013535,151.804047 99.381096,145.062256 88.479721,131.431931 &#xA;&#x9;C76.948502,117.014091 74.003174,100.433266 79.934700,82.799835 &#xA;&#x9;C86.729256,62.600746 101.094833,50.113068 121.563644,45.308907 &#xA;&#x9;C143.138535,40.245132 164.293396,42.192242 184.700745,52.318020 &#xA;&#x9;C186.628265,48.924042 187.758102,44.044960 190.561386,42.728027 &#xA;&#x9;C194.087463,41.071537 198.982391,42.328823 203.915833,42.328823 &#xA;&#x9;C205.053955,63.205311 206.178894,83.839851 207.318802,104.749207 &#xA;&#x9;C202.480804,105.313408 198.303513,105.800568 194.997589,106.186104 &#xA;&#x9;C191.149261,97.423988 188.142731,89.058868 183.939987,81.345528 &#xA;&#x9;C176.607956,67.888977 165.232788,60.451035 149.583008,58.714607 &#xA;&#x9;C140.997162,57.761963 132.952820,58.375168 125.162178,61.367161 &#xA;&#x9;C115.616562,65.033150 109.063896,71.964439 108.093460,82.453163 &#xA;&#x9;C106.962410,94.677856 110.243164,105.566727 122.353790,111.075417 &#xA;&#x9;C134.479599,116.591011 146.958893,121.370201 159.441772,126.049271 &#xA;&#x9;C173.384521,131.275574 187.362961,136.356934 199.148102,145.818344 &#xA;&#x9;C209.802658,154.372070 215.672546,165.756851 216.864059,179.186798 &#xA;&#x9;C218.170120,193.907944 216.044388,208.187073 206.231323,219.961975 &#xA;&#x9;C201.594666,225.525635 195.723190,230.067886 190.342484,234.997940 &#xA;&#x9;C189.136002,236.103363 187.641983,236.894974 185.915161,237.895981 &#xA;z"/>
</svg>